<svg version="1.2" xmlns="http://www.w3.org/2000/svg" viewBox="0 0 454 420" width="454" height="420">
	<title>requence-logo-master-svg</title>
	<style>
		.s0 { fill: #ffffff } 
	</style>
	<g>
		<path class="s0" d="m117.8 97c-25.9 4.4-46.8 21.5-56.5 46.2l-2.8 7.3-0.3-23.8-0.2-23.7h-29-29v110.5 110.5h29.5 29.5v-52.9c0-57.3 0.4-63.1 5.5-76.8 8.5-22.7 25.9-33 58.8-34.9l11.7-0.7v-31.4-31.3l-6.2 0.1c-3.5 0.1-8.4 0.5-11 0.9z"/>
		<path fill-rule="evenodd" class="s0" d="m270.7 98.9c19.4 4.8 35.9 16 45.9 31.1l2.9 4.4 0.6-31.4h58.9v317h-59l-0.2-63.7-0.3-63.7-2.9 4.4c-13.4 20.3-36.1 32-65.2 33.7-53.6 3-96.7-31-108.5-85.7-2-9.1-2.3-13.4-2.3-31.5 0-24.3 1.7-34.6 8.4-52 13.6-34.6 41.7-57.5 78.9-64.1 10.6-1.9 32.1-1.1 42.8 1.5zm-26.7 54.7c-19 5-33.4 18.7-39.7 37.8-2.4 7.2-2.7 9.6-2.7 22.1 0 12.5 0.3 14.9 2.7 22.1 6.4 19.3 20.9 33 40.2 37.9 7.6 1.9 24.1 1.9 32.4 0 20.4-4.8 36.6-21.4 41.5-42.5 2-8.5 2-26.5 0-35-4.9-21.1-21.1-37.7-41.5-42.5-8.1-1.9-25.6-1.8-32.9 0.1z"/>
		<path class="s0" d="m388 290.5v33.5h33 33v-33.5-33.5h-33-33z"/>
	</g>
</svg>