<svg version="1.2" xmlns="http://www.w3.org/2000/svg" viewBox="0 0 1954 325" preserveAspectRatio="xMidYMid meet">
  <g transform="translate(0,325) scale(0.1,-0.1)" fill="#ffffff" stroke="none">
    <path d="M1178 3230 c-259 -44 -468 -215 -565 -462 l-28 -73 -3 238 -2 237
-290 0 -290 0 0 -1105 0 -1105 295 0 295 0 0 529 c0 573 4 631 55 768 85 227
259 330 588 349 l117 7 0 314 0 313 -62 -1 c-35 -1 -84 -5 -110 -9z" />
    <path d="M2382 3229 c-435 -56 -772 -329 -906 -734 -38 -117 -55 -214 -62
-360 -32 -632 311 -1095 899 -1216 349 -71 715 -8 1003 172 86 55 219 161 237
190 7 12 -22 61 -133 220 -78 112 -144 206 -145 207 -2 2 -37 -25 -78 -60
-258 -219 -564 -289 -839 -194 -86 30 -193 101 -241 159 -67 83 -115 190 -132
295 l-7 42 831 0 831 0 0 105 c0 312 -78 598 -214 789 -63 88 -189 203 -280
255 -200 114 -499 165 -764 130z m353 -494 c162 -51 283 -194 302 -357 l6 -48
-523 0 -523 0 7 43 c11 68 70 182 126 241 54 57 136 106 210 126 112 31 289
28 395 -5z" />
    <path d="M4759 3226 c-372 -66 -653 -295 -789 -641 -67 -174 -84 -277 -84
-520 0 -181 3 -224 23 -315 118 -547 549 -887 1085 -857 291 17 518 134 652
337 l29 44 3 -637 2 -637 295 0 295 0 0 1585 0 1585 -295 0 -294 0 -3 -157 -3
-157 -29 44 c-100 151 -265 263 -459 311 -107 26 -322 34 -428 15z m490 -561
c204 -48 366 -214 415 -425 20 -85 20 -265 0 -350 -49 -211 -211 -377 -415
-425 -83 -19 -248 -19 -324 0 -193 49 -338 186 -402 379 -24 72 -27 96 -27
221 0 125 3 149 27 221 63 191 207 328 397 378 73 19 248 20 329 1z" />
    <path d="M10202 3229 c-435 -56 -772 -329 -906 -734 -38 -117 -55 -214 -62
-360 -32 -632 311 -1095 899 -1216 349 -71 715 -8 1003 172 86 55 219 161 237
190 7 12 -22 61 -133 220 -78 112 -144 206 -145 207 -2 2 -37 -25 -78 -60
-258 -219 -564 -289 -839 -194 -86 30 -193 101 -241 159 -67 83 -115 190 -132
295 l-7 42 831 0 831 0 0 105 c0 312 -78 598 -214 789 -63 88 -189 203 -280
255 -200 114 -499 165 -764 130z m353 -494 c162 -51 283 -194 302 -357 l6 -48
-523 0 -523 0 7 43 c11 68 70 182 126 241 54 57 136 106 210 126 112 31 289
28 395 -5z" />
    <path d="M12975 3226 c-235 -47 -399 -160 -547 -376 -16 -24 -17 -18 -17 148
l-1 172 -290 0 -290 0 0 -1105 0 -1105 295 0 294 0 4 648 c3 584 5 653 21 707
62 209 182 330 364 365 89 18 252 8 322 -19 141 -54 220 -163 250 -343 6 -38
10 -317 10 -710 l0 -648 295 0 295 0 0 728 c0 748 -3 827 -41 976 -72 282
-259 473 -534 546 -104 28 -329 36 -430 16z" />
    <path d="M15347 3225 c-278 -40 -518 -156 -693 -337 -215 -222 -315 -482 -315
-823 0 -341 100 -601 315 -823 233 -241 577 -365 966 -349 230 10 386 49 588
149 67 33 122 64 122 69 0 8 -209 411 -236 456 l-14 22 -102 -49 c-154 -75
-234 -93 -403 -93 -125 -1 -149 2 -221 26 -207 68 -355 235 -398 449 -68 331
97 636 398 735 72 24 96 27 221 26 169 0 249 -18 403 -93 l102 -49 14 22 c27
45 236 448 236 456 0 14 -239 128 -326 155 -44 13 -118 32 -165 41 -116 23
-369 28 -492 10z" />
    <path d="M17372 3229 c-435 -56 -772 -329 -906 -734 -38 -117 -55 -214 -62
-360 -32 -632 311 -1095 899 -1216 349 -71 715 -8 1003 172 86 55 219 161 237
190 7 12 -22 61 -133 220 -78 112 -144 206 -145 207 -2 2 -37 -25 -78 -60
-258 -219 -564 -289 -839 -194 -86 30 -193 101 -241 159 -67 83 -115 190 -132
295 l-7 42 831 0 831 0 0 105 c0 312 -78 598 -214 789 -63 88 -189 203 -280
255 -200 114 -499 165 -764 130z m353 -494 c162 -51 283 -194 302 -357 l6 -48
-523 0 -523 0 7 43 c11 68 70 182 126 241 54 57 136 106 210 126 112 31 289
28 395 -5z" />
    <path d="M6750 2518 c0 -721 7 -885 44 -1028 86 -341 304 -541 645 -590 100
-15 260 -8 346 14 83 22 209 86 277 141 49 39 80 77 192 230 14 18 15 1 16
-152 l0 -173 290 0 290 0 0 1105 0 1105 -294 0 -295 0 -4 -627 c-3 -550 -6
-637 -21 -703 -24 -105 -83 -225 -140 -283 -85 -88 -228 -135 -368 -123 -190
17 -311 130 -352 329 -14 65 -16 174 -16 742 l0 665 -305 0 -305 0 0 -652z" />
    <path d="M18880 1295 l0 -335 330 0 330 0 0 335 0 335 -330 0 -330 0 0 -335z" />
  </g>
</svg>
